<?xml version="1.0" standalone="no"?><!DOCTYPE svg PUBLIC "-//W3C//DTD SVG 1.1//EN" "http://www.w3.org/Graphics/SVG/1.1/DTD/svg11.dtd"><svg t="1542694859120" class="icon" style="" viewBox="0 0 1024 1024" version="1.1" xmlns="http://www.w3.org/2000/svg" p-id="4517" xmlns:xlink="http://www.w3.org/1999/xlink" width="200" height="200"><defs><style type="text/css"></style></defs><path d="M913.067 177.777l-796.444 0c-59.733 0-108.089 48.356-108.089 105.244l0 486.4c0 56.889 48.356 105.244 105.244 105.244l799.289 0c56.889 0 105.244-48.356 105.244-105.244l0-486.4c2.844-56.889-45.511-105.244-105.244-105.244zM978.489 283.022l0 486.4c0 8.533-2.844 17.067-5.689 25.6l-275.911-275.911 270.222-270.222c5.689 11.378 11.378 22.756 11.378 34.133zM913.067 220.444c8.533 0 14.222 2.844 22.756 2.844l-2.844 0-372.622 375.467c-22.756 22.756-65.422 22.756-91.022 0l-372.622-372.622-2.844 0c5.689-2.844 14.222-2.844 22.756-2.844l796.444-2.844zM56.889 795.022c-2.844-8.533-5.689-14.222-5.689-22.756l0-489.244c0-11.378 2.844-25.6 11.378-34.133l270.222 270.222-275.911 275.911zM116.622 834.844c-11.378 0-19.911-2.844-31.289-8.533l275.911-275.911 79.644 79.644c19.911 19.911 45.511 31.289 73.956 31.289s54.044-11.378 73.956-31.289l76.8-76.8 275.911 275.911c-8.533 5.689-19.911 8.533-31.289 8.533l-793.6 0 0-2.844z" p-id="4518"></path></svg>