<?xml version="1.0" standalone="no"?><!DOCTYPE svg PUBLIC "-//W3C//DTD SVG 1.1//EN" "http://www.w3.org/Graphics/SVG/1.1/DTD/svg11.dtd"><svg t="1542694831369" class="icon" style="" viewBox="0 0 1024 1024" version="1.1" xmlns="http://www.w3.org/2000/svg" p-id="3660" xmlns:xlink="http://www.w3.org/1999/xlink" width="200" height="200"><defs><style type="text/css"></style></defs><path d="M864 280v384h48c8.8 0 16-7.2 16-16V184c0-8.8-7.2-16-16-16H208c-8.8 0-16 7.2-16 16v48h624c26.5 0 48 21.5 48 48z" fill="#A0D3F8" p-id="3661"></path><path d="M912 136H208c-26.5 0-48 21.5-48 48v48h-48c-26.5 0-48 21.5-48 48v464c0 26.5 21.5 48 48 48h539.2l140 93.3c2.7 1.8 5.8 2.7 8.9 2.7 3.2 0 6.5-1 9.2-2.9 5.4-3.8 7.9-10.5 6.3-17l-19-76.1H816c26.5 0 48-21.5 48-48v-48h48c26.5 0 48-21.5 48-48V184c0-26.5-21.5-48-48-48z m-80 544v64c0 8.8-7.2 16-16 16h-40c-4.9 0-9.6 2.3-12.6 6.2s-4.1 8.9-2.9 13.7l14 55.9-109.6-73c-2.6-1.8-5.7-2.7-8.9-2.7H112c-8.8 0-16-7.2-16-16V280c0-8.8 7.2-16 16-16h704c8.8 0 16 7.2 16 16v400z m96-32c0 8.8-7.2 16-16 16h-48V280c0-26.5-21.5-48-48-48H192v-48c0-8.8 7.2-16 16-16h704c8.8 0 16 7.2 16 16v464z" fill="#108EE9" p-id="3662"></path><path d="M200 376h80c4.4 0 8-3.6 8-8s-3.6-8-8-8h-80c-4.4 0-8 3.6-8 8s3.6 8 8 8zM728 360H344c-4.4 0-8 3.6-8 8s3.6 8 8 8h384c4.4 0 8-3.6 8-8s-3.6-8-8-8zM200 472h416c4.4 0 8-3.6 8-8s-3.6-8-8-8H200c-4.4 0-8 3.6-8 8s3.6 8 8 8zM728 456h-48c-4.4 0-8 3.6-8 8s3.6 8 8 8h48c4.4 0 8-3.6 8-8s-3.6-8-8-8zM200 568h192c4.4 0 8-3.6 8-8s-3.6-8-8-8H200c-4.4 0-8 3.6-8 8s3.6 8 8 8zM728 552H456c-4.4 0-8 3.6-8 8s3.6 8 8 8h272c4.4 0 8-3.6 8-8s-3.6-8-8-8zM728 648H200c-4.4 0-8 3.6-8 8s3.6 8 8 8h528c4.4 0 8-3.6 8-8s-3.6-8-8-8z" fill="#108EE9" p-id="3663"></path></svg>