<?xml version="1.0" standalone="no"?><!DOCTYPE svg PUBLIC "-//W3C//DTD SVG 1.1//EN" "http://www.w3.org/Graphics/SVG/1.1/DTD/svg11.dtd"><svg t="1542693329451" class="icon" style="" viewBox="0 0 1024 1024" version="1.1" xmlns="http://www.w3.org/2000/svg" p-id="2023" xmlns:xlink="http://www.w3.org/1999/xlink" width="200" height="200"><defs><style type="text/css"></style></defs><path d="M313.836392 347.203988c-36.407342 0-66.062271 29.631724-66.062271 66.062271s29.631724 66.062271 66.062271 66.062271c36.430546 0 66.085475-29.631724 66.085475-66.062271S350.266939 347.203988 313.836392 347.203988L313.836392 347.203988 313.836392 347.203988zM512.023204 347.203988c-36.407342 0-66.062271 29.631724-66.062271 66.062271s29.631724 66.062271 66.062271 66.062271 66.062271-29.631724 66.062271-66.062271S548.430546 347.203988 512.023204 347.203988L512.023204 347.203988 512.023204 347.203988zM710.186812 347.203988c-36.407342 0-66.085475 29.631724-66.085475 66.062271s29.654929 66.062271 66.085475 66.062271c36.384138 0 66.039066-29.631724 66.039066-66.062271S746.570949 347.203988 710.186812 347.203988L710.186812 347.203988 710.186812 347.203988z" p-id="2024"></path><path d="M512.023204 875.609336c-12.831906 0-23.204169-10.395468-23.204169-23.204169s10.372264-23.204169 23.204169-23.204169c255.315477 0 463.039202-174.704192 463.039202-389.435577S767.338681 50.329844 512.023204 50.329844c-255.338681 0-463.085611 174.704192-463.085611 389.435577 0 130.314616 77.107455 251.440381 206.285067 324.069431 11.161206 6.28833 15.129119 20.419669 8.863993 31.604079-6.28833 11.138001-20.419669 15.152323-31.604079 8.840789C88.477498 723.343576 2.529254 587.065488 2.529254 439.76542c0-240.325584 228.56107-435.843916 509.49395-435.843916 280.909676 0 509.447541 195.518332 509.447541 435.843916S792.93288 875.609336 512.023204 875.609336z" p-id="2025"></path><path d="M261.255744 1024.023204l37.985225-196.748153c2.413234-12.57666 14.340177-20.860548 27.172082-18.377702 12.57666 2.413234 20.81414 14.595423 18.377702 27.172082l-18.679356 96.877408 174.309721-100.752504c11.068389-6.450759 25.269341-2.622071 31.696896 8.469522 6.404351 11.091593 2.598867 25.292545-8.492726 31.696896L261.255744 1024.023204z" p-id="2026"></path></svg>